<?xml version="1.0" encoding="UTF-8" standalone="no"?>
<svg
   xmlns:dc="http://purl.org/dc/elements/1.1/"
   xmlns:cc="http://creativecommons.org/ns#"
   xmlns:rdf="http://www.w3.org/1999/02/22-rdf-syntax-ns#"
   xmlns:svg="http://www.w3.org/2000/svg"
   xmlns="http://www.w3.org/2000/svg"
   id="svg4"
   version="1.1"
   viewBox="0 0 640 512">
  <metadata
     id="metadata10">
    <rdf:RDF>
      <cc:Work
         rdf:about="">
        <dc:format>image/svg+xml</dc:format>
        <dc:type
           rdf:resource="http://purl.org/dc/dcmitype/StillImage" />
        <dc:title></dc:title>
      </cc:Work>
    </rdf:RDF>
  </metadata>
  <defs
     id="defs8" />
  <path
     style="fill:#000000;fill-opacity:1"
     id="path817"
     d="M 208,0 C 178.1,0 153.29922,20.499219 146.19922,48.199219 145.39922,48.199219 144.8,48 144,48 c -35.29999,0 -64,28.7 -64,64 0,4.8 0.599219,9.5 1.699219,14 C 52.499219,138 32,166.6 32,200 c 0,12.6 3.200781,24.30039 8.300781,34.90039 C 16.300781,248.70039 0,274.3 0,304 0,337.3 20.400391,365.90039 49.400391,377.90039 48.500391,382.50039 48,387.2 48,392 c 0,39.8 32.2,72 72,72 4.09999,0 8.1,-0.49922 12,-1.19922 9.6,28.5 36.2,49.19922 68,49.19922 39.8,0 72,-32.2 72,-72 V 64 C 272,28.7 243.3,0 208,0 Z m 160,0 c -35.3,0 -64,28.6 -64,64 v 376 c 0,39.8 32.2,72 72,72 19.01388,0 36.16411,-7.40587 48.9375,-19.44922 -0.29012,-2.26526 -0.43103,-4.53379 -0.41797,-6.77148 1.75991,-3.82852 -2.05321,-4.9636 -4.82226,-6.08399 -6.41574,-0.1029 -11.93796,5.70466 -18.30274,7.19336 -18.14786,5.34556 -36.39091,-6.05306 -47.43164,-19.79492 -13.40362,-20.08189 -28.36824,-40.64107 -32.75,-64.94922 -4.55097,-18.25559 7.6524,-36.33202 23.09375,-45.07226 4.5517,-0.48712 2.9905,-4.86823 2.9082,-8.00391 -4.1754,-4.27974 -10.31035,-6.69384 -14.70312,-10.95313 -14.29031,-13.06435 -13.83514,-35.14077 -7.18164,-51.91015 10.84678,-21.68491 21.27833,-45.0606 40.42383,-60.86719 13.40735,-12.48354 34.46419,-10.93755 49.5,-2.36719 2.75575,3.66992 6.12107,0.93686 8.85156,-1.17773 1.35732,-11.21589 1.30442,-24.85131 9.98633,-33.85156 14.48108,-16.40146 38.08643,-17.8612 58.48632,-18.37696 14.9042,1.0027 30.30808,0.11121 44.68555,4.91407 0.96852,0.23915 1.91065,0.52755 2.83789,0.84375 C 532.83687,152.9565 515.96967,134.90502 494.30078,126 c 1,-4.5 1.69922,-9.2 1.69922,-14 0,-35.3 -28.7,-64 -64,-64 -0.8,0 -1.49922,0.199219 -2.19922,0.199219 C 422.70078,20.499219 397.9,0 368,0 Z" />
  <path
     style="fill:#000000;fill-opacity:1"
     id="path2"
     d="m 610.5,373.3 c 2.6,-14.1 2.6,-28.5 0,-42.6 l 25.8,-14.9 c 3,-1.7 4.3,-5.2 3.3,-8.5 -6.7,-21.6 -18.2,-41.2 -33.2,-57.4 -2.3,-2.5 -6,-3.1 -9,-1.4 l -25.8,14.9 c -10.9,-9.3 -23.4,-16.5 -36.9,-21.3 v -29.8 c 0,-3.4 -2.4,-6.4 -5.7,-7.1 -22.3,-5 -45,-4.8 -66.2,0 -3.3,0.7 -5.7,3.7 -5.7,7.1 v 29.8 c -13.5,4.8 -26,12 -36.9,21.3 l -25.8,-14.9 c -2.9,-1.7 -6.7,-1.1 -9,1.4 -15,16.2 -26.5,35.8 -33.2,57.4 -1,3.3 0.4,6.8 3.3,8.5 l 25.8,14.9 c -2.6,14.1 -2.6,28.5 0,42.6 l -25.8,14.9 c -3,1.7 -4.3,5.2 -3.3,8.5 6.7,21.6 18.2,41.1 33.2,57.4 2.3,2.5 6,3.1 9,1.4 l 25.8,-14.9 c 10.9,9.3 23.4,16.5 36.9,21.3 v 29.8 c 0,3.4 2.4,6.4 5.7,7.1 22.3,5 45,4.8 66.2,0 3.3,-0.7 5.7,-3.7 5.7,-7.1 v -29.8 c 13.5,-4.8 26,-12 36.9,-21.3 l 25.8,14.9 c 2.9,1.7 6.7,1.1 9,-1.4 15,-16.2 26.5,-35.8 33.2,-57.4 1,-3.3 -0.4,-6.8 -3.3,-8.5 z M 496,400.5 c -26.8,0 -48.5,-21.8 -48.5,-48.5 0,-26.7 21.8,-48.5 48.5,-48.5 26.7,0 48.5,21.8 48.5,48.5 0,26.7 -21.7,48.5 -48.5,48.5 z" />
</svg>
