<?xml version="1.0" encoding="UTF-8" standalone="no"?>
<svg
   xmlns:dc="http://purl.org/dc/elements/1.1/"
   xmlns:cc="http://creativecommons.org/ns#"
   xmlns:rdf="http://www.w3.org/1999/02/22-rdf-syntax-ns#"
   xmlns:svg="http://www.w3.org/2000/svg"
   xmlns="http://www.w3.org/2000/svg"
   xmlns:sodipodi="http://sodipodi.sourceforge.net/DTD/sodipodi-0.dtd"
   xmlns:inkscape="http://www.inkscape.org/namespaces/inkscape"
   viewBox="0 0 640 512"
   version="1.1"
   id="svg4"
   sodipodi:docname="brain-play.svg"
   inkscape:version="0.92.3 (2405546, 2018-03-11)">
  <metadata
     id="metadata10">
    <rdf:RDF>
      <cc:Work
         rdf:about="">
        <dc:format>image/svg+xml</dc:format>
        <dc:type
           rdf:resource="http://purl.org/dc/dcmitype/StillImage" />
        <dc:title></dc:title>
      </cc:Work>
    </rdf:RDF>
  </metadata>
  <defs
     id="defs8" />
  <sodipodi:namedview
     pagecolor="#ffffff"
     bordercolor="#666666"
     borderopacity="1"
     objecttolerance="10"
     gridtolerance="10"
     guidetolerance="10"
     inkscape:pageopacity="0"
     inkscape:pageshadow="2"
     inkscape:window-width="1629"
     inkscape:window-height="989"
     id="namedview6"
     showgrid="false"
     inkscape:zoom="0.4609375"
     inkscape:cx="859.93633"
     inkscape:cy="341.24051"
     inkscape:window-x="51"
     inkscape:window-y="33"
     inkscape:window-maximized="1"
     inkscape:current-layer="svg4" />
  <path
     style="fill:#000000;fill-opacity:1"
     d="M 208 0 C 178.1 0 153.29922 20.499215 146.19922 48.199219 C 145.39922 48.199219 144.8 48 144 48 C 108.7 48 80 76.7 80 112 C 80 116.8 80.599219 121.5 81.699219 126 C 52.499219 138 32 166.6 32 200 C 32 212.6 35.200781 224.30039 40.300781 234.90039 C 16.300781 248.70039 0 274.3 0 304 C 0 337.3 20.400391 365.90039 49.400391 377.90039 C 48.500391 382.50039 48 387.2 48 392 C 48 431.8 80.2 464 120 464 C 124.1 464 128.1 463.50078 132 462.80078 C 141.6 491.30078 168.2 512 200 512 C 239.8 512 272 479.8 272 440 L 272 64 C 272 28.699996 243.3 1.0421293e-13 208 0 z M 368 0 C 332.7 0 304 28.599996 304 64 L 304 440 C 304 465.07873 316.79166 487.1306 336.20703 500.01953 C 331.75212 417.52963 335.11785 334.88242 334.16602 252.32422 C 327.0776 217.24408 357.10596 179.50675 393.18359 179.83984 C 399.1255 179.74215 405.09776 180.44815 410.81055 182.10742 C 464.43996 208.6441 516.03394 238.92436 567.79492 268.90039 C 560.72 254.64873 549.48318 242.82617 535.69922 234.90039 C 540.89922 224.30039 544 212.6 544 200 C 544 166.6 523.50078 138 494.30078 126 C 495.30078 121.5 496 116.8 496 112 C 496 76.7 467.3 48 432 48 C 431.2 48 430.50078 48.199219 429.80078 48.199219 C 422.70078 20.499215 397.9 2.3684758e-14 368 0 z "
     id="path914" />
  <path
     id="path903"
     d="M 624.36044,337.78729 410.16422,215.85864 c -17.40345,-9.90194 -44.05628,-0.29295 -44.05628,24.19824 v 243.79869 c 0,21.97177 24.76645,35.21342 44.05628,24.19824 L 624.36044,386.18376 c 19.10727,-10.8394 19.16813,-37.55706 0,-48.39647 z"
     inkscape:connector-curvature="0"
     style="stroke-width:0.59710598" />
</svg>
