<?xml version="1.0" encoding="UTF-8" standalone="no"?>
<svg
   xmlns:dc="http://purl.org/dc/elements/1.1/"
   xmlns:cc="http://creativecommons.org/ns#"
   xmlns:rdf="http://www.w3.org/1999/02/22-rdf-syntax-ns#"
   xmlns:svg="http://www.w3.org/2000/svg"
   xmlns="http://www.w3.org/2000/svg"
   xmlns:xlink="http://www.w3.org/1999/xlink"
   xml:space="preserve"
   enable-background="new 0 0 380.38 325.95"
   viewBox="0 0 99.999999 84.677937"
   height="84.67794"
   width="100"
   y="0px"
   x="0px"
   id="Ebene_1"
   version="1.1"><metadata
     id="metadata3907"><rdf:RDF><cc:Work
         rdf:about=""><dc:format>image/svg+xml</dc:format><dc:type
           rdf:resource="http://purl.org/dc/dcmitype/StillImage" /><dc:title></dc:title></cc:Work></rdf:RDF></metadata><defs
     id="defs3905" /><g
     transform="matrix(0.26832311,0,0,0.26832311,-1.1747186,-1.4384802)"
     style="fill:#07307d;fill-opacity:1"
     id="g3891"><defs
       id="defs3893"><rect
         height="315.582"
         width="372.686"
         y="5.3610001"
         x="4.3779998"
         id="SVGID_1_" /></defs><clipPath
       id="SVGID_2_"><use
         height="100%"
         width="100%"
         y="0"
         x="0"
         style="overflow:visible"
         id="use3897"
         overflow="visible"
         xlink:href="#SVGID_1_" /></clipPath><path
       style="fill:#07307d;fill-opacity:1"
       id="path3899"
       d="m 247.741,112.369 c 0.059,1.07 0.1,2.152 0.1,3.242 0,6.99 -1.271,13.684 -3.584,19.881 l -23.094,-9.973 c 1.072,-3.244 1.664,-6.709 1.664,-10.311 0,-0.008 -0.006,-0.014 -0.006,-0.02 l 24.92,-2.819 z m -86.939,17.808 c 5.441,10.6 16.471,17.854 29.201,17.854 12.193,0 22.822,-6.654 28.482,-16.521 l 23.119,9.984 c -9.453,18.473 -28.668,31.156 -50.803,31.156 -23.275,0 -43.322,-14.02 -52.186,-34.047 l 22.187,-8.426 z m -24.498,2.285 c -1.652,-5.328 -2.543,-10.988 -2.543,-16.852 0,-31.453 25.59,-57.041 57.041,-57.041 28.123,0 51.537,20.463 56.186,47.283 l -24.816,2.805 c -3.039,-14.988 -16.283,-26.27 -32.168,-26.27 -18.125,0 -32.82,14.695 -32.82,32.82 0,3.07 0.434,6.043 1.221,8.859 l -22.101,8.396 z m 231.336,42.946 c 0,22.262 -18.045,40.311 -40.311,40.311 -22.26,0 -40.307,-18.049 -40.307,-40.311 0,-4.668 0.82,-9.145 2.285,-13.314 l 27.896,12.045 c -0.023,0.25 -0.041,0.504 -0.041,0.762 0,5.742 4.652,10.391 10.395,10.391 5.743,0 10.389,-4.648 10.389,-10.391 0,-5.74 -4.646,-10.393 -10.389,-10.393 -3.129,0 -5.926,1.385 -7.832,3.572 l -27.758,-11.986 c 4.236,-7.729 10.918,-13.928 19.02,-17.529 -1.213,0.125 -2.438,0.188 -3.686,0.188 -9.773,0 -18.633,-3.881 -25.146,-10.18 -1.172,7.225 -3.201,14.16 -5.949,20.713 l -25.922,-11.191 c 2.654,-6.994 4.117,-14.568 4.117,-22.482 0,-1.34 -0.057,-2.666 -0.137,-3.98 l 43.645,-4.941 c 1.652,3.559 5.244,6.027 9.422,6.027 5.742,0 10.395,-4.656 10.395,-10.395 0,-5.739 -4.652,-10.395 -10.395,-10.395 -5.004,0 -9.18,3.535 -10.166,8.242 l -43.643,4.941 c -5.023,-30.09 -31.229,-53.104 -62.721,-53.104 -35.07,0 -63.604,28.533 -63.604,63.604 0,6.68 1.043,13.125 2.965,19.18 L 83.81,152.388 c -3.643,-6.211 -10.383,-10.387 -18.104,-10.387 -11.578,0 -20.969,9.391 -20.969,20.971 0,11.578 9.391,20.965 20.969,20.965 11.582,0 20.971,-9.387 20.971,-20.965 0,-1.537 -0.17,-3.033 -0.482,-4.471 l 46.277,-17.57 c 9.807,22.504 32.258,38.281 58.33,38.281 24.83,0 46.369,-14.312 56.838,-35.113 l 25.818,11.15 c -15.193,30.002 -46.311,50.576 -82.244,50.576 -29.768,0 -56.236,-14.125 -73.082,-36.031 -3.402,25.496 -25.215,45.164 -51.637,45.164 -28.781,0 -52.109,-23.332 -52.109,-52.109 0,-28.785 23.328,-52.113 52.109,-52.113 12.523,0 24.012,4.422 32.998,11.783 -0.277,-2.908 -0.424,-5.857 -0.424,-8.838 0,-50.893 41.256,-92.145 92.145,-92.145 39.68,0 73.496,25.078 86.475,60.246 6.549,-9.312 17.367,-15.402 29.613,-15.402 19.986,0 36.188,16.199 36.188,36.182 0,14.555 -8.592,27.088 -20.977,32.836 1.582,-0.188 3.188,-0.295 4.816,-0.295 22.266,0 40.311,18.047 40.311,40.305 m -23.746,-46.575 c 5.367,-7.449 8.537,-16.582 8.537,-26.465 0,-25.027 -20.287,-45.322 -45.318,-45.322 -7.434,0 -14.447,1.805 -20.641,4.98 C 267.999,28.262 232.156,5.36 190.956,5.36 c -56.654,0 -103.18,43.305 -108.316,98.619 -5.443,-1.588 -11.188,-2.455 -17.141,-2.455 -33.754,0 -61.121,27.367 -61.121,61.121 0,33.758 27.367,61.123 61.121,61.123 l 262.82,0 c 26.922,0 48.744,-21.826 48.744,-48.748 0,-21.472 -13.886,-39.687 -33.169,-46.187"
       clip-path="url(#SVGID_2_)" /><path
       style="fill:#07307d;fill-opacity:1"
       id="path3901"
       d="m 56.026,295.83 c 0,1.805 -0.312,3.477 -0.936,5.02 -0.627,1.539 -1.475,2.877 -2.551,4.008 -1.076,1.133 -2.334,2.027 -3.77,2.68 -1.439,0.654 -2.973,0.982 -4.604,0.982 -1.625,0 -3.158,-0.328 -4.598,-0.982 -1.438,-0.652 -2.693,-1.547 -3.77,-2.68 -1.076,-1.131 -1.918,-2.469 -2.527,-4.008 -0.613,-1.543 -0.918,-3.215 -0.918,-5.02 0,-1.625 0.305,-3.201 0.918,-4.725 0.609,-1.529 1.451,-2.877 2.527,-4.057 1.076,-1.176 2.332,-2.121 3.77,-2.834 1.439,-0.713 2.973,-1.066 4.598,-1.066 1.631,0 3.164,0.316 4.604,0.959 1.436,0.641 2.693,1.525 3.77,2.66 1.076,1.133 1.924,2.477 2.551,4.031 0.624,1.555 0.936,3.235 0.936,5.032 m 10.118,10.031 c 1.248,-3.025 1.871,-6.365 1.871,-10.031 0,-3.57 -0.623,-6.863 -1.871,-9.871 -1.252,-3.01 -2.953,-5.617 -5.104,-7.826 -2.151,-2.209 -4.67,-3.932 -7.564,-5.168 -2.891,-1.23 -5.992,-1.85 -9.309,-1.85 -1.074,0 -2.176,0.109 -3.312,0.326 -1.133,0.217 -2.23,0.533 -3.289,0.938 -1.062,0.408 -2.049,0.928 -2.965,1.568 -0.914,0.641 -1.695,1.367 -2.334,2.182 l 0,-21.799 -11.944,0 0,41.5 c 0,3.607 0.625,6.914 1.873,9.922 1.252,3.008 2.957,5.604 5.123,7.781 2.164,2.18 4.693,3.881 7.584,5.102 2.893,1.219 5.982,1.828 9.264,1.828 3.316,0 6.418,-0.594 9.309,-1.785 2.895,-1.191 5.414,-2.871 7.564,-5.035 2.15,-2.164 3.852,-4.761 5.104,-7.782 m 66.002,3.771 c 0.932,-2.168 1.395,-4.471 1.395,-6.912 l 0,-29.73 -11.857,0 0,29.73 c 0,0.816 -0.16,1.578 -0.48,2.289 -0.318,0.715 -0.746,1.34 -1.285,1.875 -0.539,0.539 -1.168,0.957 -1.895,1.266 -0.73,0.301 -1.498,0.457 -2.312,0.457 -0.814,0 -1.576,-0.156 -2.291,-0.457 -0.709,-0.309 -1.334,-0.727 -1.869,-1.266 -0.541,-0.535 -0.971,-1.16 -1.289,-1.875 -0.32,-0.711 -0.48,-1.473 -0.48,-2.289 l 0,-29.73 -11.86,0 0,29.73 c 0,0.816 -0.15,1.578 -0.457,2.289 -0.307,0.715 -0.736,1.34 -1.287,1.875 -0.551,0.539 -1.189,0.957 -1.916,1.266 -0.73,0.301 -1.498,0.457 -2.314,0.457 -0.812,0 -1.574,-0.156 -2.285,-0.457 -0.715,-0.309 -1.338,-0.727 -1.875,-1.266 -0.539,-0.535 -0.961,-1.16 -1.266,-1.875 -0.305,-0.711 -0.457,-1.473 -0.457,-2.289 l 0,-29.73 -11.905,0 0,29.73 c 0,2.441 0.467,4.744 1.396,6.912 0.93,2.166 2.201,4.045 3.816,5.646 1.613,1.598 3.494,2.861 5.645,3.789 2.15,0.934 4.461,1.395 6.93,1.395 2.238,0 4.369,-0.387 6.387,-1.152 2.023,-0.771 3.848,-1.896 5.473,-3.379 1.656,1.482 3.504,2.607 5.539,3.379 2.033,0.766 4.154,1.152 6.363,1.152 2.473,0 4.787,-0.461 6.953,-1.395 2.166,-0.928 4.055,-2.191 5.668,-3.789 1.613,-1.601 2.885,-3.48 3.815,-5.646 m 21.884,-13.341 c -1.047,-2.396 -1.568,-4.963 -1.568,-7.693 0,-2.73 0.521,-5.311 1.568,-7.736 1.047,-2.43 2.471,-4.539 4.273,-6.324 1.801,-1.785 3.908,-3.207 6.32,-4.25 2.412,-1.047 4.998,-1.57 7.762,-1.57 2.73,0 5.344,0.531 7.848,1.59 2.498,1.064 4.664,2.582 6.494,4.559 l 6.627,-10.9 c -2.906,-2.529 -6.16,-4.453 -9.766,-5.777 -3.604,-1.322 -7.34,-1.982 -11.203,-1.982 -2.965,0 -5.82,0.383 -8.568,1.156 -2.744,0.77 -5.316,1.859 -7.717,3.27 -2.396,1.41 -4.584,3.102 -6.561,5.078 -1.977,1.976 -3.668,4.164 -5.08,6.562 -1.408,2.395 -2.498,4.977 -3.27,7.736 -0.766,2.764 -1.154,5.625 -1.154,8.59 0,2.963 0.389,5.818 1.154,8.566 0.771,2.744 1.861,5.318 3.27,7.717 1.412,2.396 3.104,4.582 5.08,6.559 1.977,1.979 4.164,3.672 6.561,5.082 2.4,1.408 4.973,2.498 7.717,3.27 2.748,0.766 5.604,1.152 8.568,1.152 3.863,0 7.6,-0.668 11.203,-2.006 3.605,-1.334 6.859,-3.256 9.766,-5.754 l -6.627,-10.898 c -1.83,1.979 -3.996,3.494 -6.494,4.557 -2.504,1.059 -5.117,1.59 -7.848,1.59 -2.764,0 -5.35,-0.521 -7.762,-1.566 -2.412,-1.051 -4.52,-2.471 -6.32,-4.275 -1.802,-1.807 -3.226,-3.907 -4.273,-6.303 m 45.297,23.3 11.988,0 0,-65.261 -11.988,0 0,65.261 z m 54.192,-23.761 c 0,1.895 -0.312,3.621 -0.941,5.191 -0.623,1.568 -1.473,2.906 -2.551,4.012 -1.072,1.105 -2.328,1.963 -3.768,2.572 -1.439,0.607 -2.971,0.914 -4.6,0.914 -1.629,0 -3.158,-0.328 -4.6,-0.982 -1.441,-0.652 -2.689,-1.547 -3.75,-2.68 -1.061,-1.131 -1.898,-2.469 -2.506,-4.008 -0.611,-1.543 -0.916,-3.215 -0.916,-5.02 0,-1.914 0.305,-3.652 0.916,-5.205 0.607,-1.557 1.445,-2.893 2.506,-4.01 1.061,-1.121 2.309,-1.979 3.75,-2.574 1.441,-0.598 2.971,-0.893 4.6,-0.893 1.629,0 3.16,0.295 4.6,0.893 1.439,0.596 2.695,1.453 3.768,2.574 1.078,1.117 1.928,2.453 2.551,4.01 0.628,1.553 0.941,3.292 0.941,5.206 m 10.113,9.746 c 1.248,-3.008 1.875,-6.256 1.875,-9.746 0,-3.717 -0.627,-7.094 -1.875,-10.133 -1.248,-3.039 -2.949,-5.641 -5.104,-7.801 -2.15,-2.166 -4.67,-3.84 -7.561,-5.016 -2.893,-1.18 -5.996,-1.766 -9.309,-1.766 -3.287,0 -6.375,0.625 -9.264,1.875 -2.895,1.25 -5.424,2.969 -7.584,5.166 -2.166,2.193 -3.875,4.803 -5.125,7.826 -1.25,3.023 -1.875,6.307 -1.875,9.848 0,3.49 0.625,6.738 1.875,9.746 1.25,3.008 2.959,5.609 5.125,7.805 2.16,2.193 4.689,3.922 7.584,5.188 2.889,1.262 5.977,1.895 9.264,1.895 3.312,0 6.416,-0.633 9.309,-1.895 2.891,-1.266 5.41,-2.994 7.561,-5.188 2.155,-2.195 3.856,-4.797 5.104,-7.804 m 20.39,13.549 c 2.525,1.018 5.227,1.525 8.109,1.525 l 0,-11.859 c -1.254,0 -2.422,-0.219 -3.51,-0.652 -1.096,-0.438 -2.045,-1.074 -2.859,-1.916 -0.811,-0.844 -1.459,-1.887 -1.939,-3.119 -0.48,-1.234 -0.721,-2.641 -0.721,-4.207 l 0,-25.812 -11.854,0 0,25.812 c 0,3.342 0.539,6.359 1.635,9.047 1.088,2.688 2.584,4.969 4.488,6.844 1.904,1.875 4.12,3.319 6.651,4.337 m 27.375,-11.182 c 1.09,-2.688 1.635,-5.705 1.635,-9.047 l 0,-25.812 -11.859,0 0,25.812 c 0,1.566 -0.24,2.973 -0.717,4.207 -0.48,1.232 -1.129,2.275 -1.943,3.119 -0.811,0.842 -1.764,1.479 -2.854,1.916 -1.09,0.434 -2.262,0.652 -3.51,0.652 l 0,11.859 c 2.877,0 5.578,-0.508 8.109,-1.525 2.525,-1.018 4.746,-2.463 6.645,-4.338 1.909,-1.874 3.405,-4.156 4.494,-6.843 m 43.454,-11.875 c 0,1.805 -0.305,3.475 -0.914,5.012 -0.609,1.545 -1.453,2.879 -2.531,4.012 -1.072,1.137 -2.328,2.031 -3.768,2.684 -1.44,0.653 -2.971,0.98 -4.6,0.98 -1.629,0 -3.164,-0.328 -4.6,-0.98 -1.441,-0.652 -2.695,-1.547 -3.773,-2.684 -1.072,-1.133 -1.922,-2.467 -2.549,-4.012 -0.621,-1.537 -0.938,-3.207 -0.938,-5.012 0,-1.801 0.316,-3.48 0.938,-5.033 0.627,-1.557 1.477,-2.9 2.549,-4.033 1.078,-1.133 2.332,-2.02 3.773,-2.66 1.436,-0.641 2.971,-0.959 4.6,-0.959 1.629,0 3.16,0.357 4.6,1.066 1.439,0.715 2.695,1.662 3.768,2.836 1.078,1.174 1.922,2.529 2.531,4.053 0.609,1.527 0.914,3.105 0.914,4.73 m 12.035,0 0,-41.502 -11.947,0 0,21.799 c -0.639,-0.816 -1.418,-1.543 -2.332,-2.182 -0.914,-0.639 -1.904,-1.16 -2.965,-1.568 -1.061,-0.41 -2.158,-0.719 -3.293,-0.939 -1.131,-0.217 -2.232,-0.326 -3.311,-0.326 -3.312,0 -6.416,0.617 -9.311,1.852 -2.889,1.238 -5.412,2.961 -7.564,5.168 -2.15,2.207 -3.848,4.816 -5.098,7.826 -1.248,3.006 -1.875,6.299 -1.875,9.873 0,3.664 0.627,7.004 1.875,10.027 1.25,3.023 2.947,5.617 5.098,7.781 2.152,2.166 4.676,3.848 7.564,5.037 2.895,1.193 5.998,1.787 9.311,1.787 3.285,0 6.369,-0.613 9.264,-1.832 2.893,-1.221 5.42,-2.92 7.588,-5.1 2.162,-2.182 3.873,-4.771 5.121,-7.781 1.248,-3.01 1.875,-6.317 1.875,-9.92"
       clip-path="url(#SVGID_2_)" /></g></svg>